<svg version="1.2" xmlns="http://www.w3.org/2000/svg" viewBox="0 0 1549 1864" width="300" height="361">
	<style>
		.s0 { fill: #0083c5 } 
		.s1 { fill: #bc0007 } 
		.s2 { fill: #428d4a } 
	</style>
	<path id="Τiou mpa .org" class="s0" aria-label="Τiou
mpa
.org"  d="m48.1 17.5h511.3v139.8h-15.1q-13.4-48.4-29.8-69.4-16.4-21.3-44.9-33.9-16-6.8-55.9-6.8h-42.4v398.4q0 39.6 4.7 49.5 5 9.9 18.9 17.6 14.2 7.2 38.6 7.2h18.9v14.1h-298.1v-14.1h18.9q24.8 0 39.9-8 10.9-5.3 17.2-18.3 4.6-9.1 4.6-48v-398.4h-41.1q-57.6 0-83.6 22.1-36.5 30.8-46.2 88h-15.9zm620.3-12.2q27.3 0 46.2 17.5 18.9 17.1 18.9 41.5 0 24.4-19.3 41.5-18.9 17.2-45.8 17.2-26.8 0-45.7-17.2-18.9-17.1-18.9-41.5 0-24.4 18.9-41.5 18.9-17.5 45.7-17.5zm-105.8 172.5h164.6v282.3q0 37.7 9.7 48.4 9.6 10.3 37.8 11.8v13.7h-212.1v-13.7q26.1-0.8 38.7-13.7 8.4-8.8 8.4-46.5v-208q0-37.7-9.7-48-9.7-10.7-37.4-12.2zm391.5-10.6q51.2 0 95.3 24 44.1 24 66.8 68.1 23.1 44.2 23.1 96.8 0 75.8-42.4 126.9-51.3 61.7-141.5 61.7-88.6 0-136.5-56.4-47.8-56.4-47.8-130.7 0-76.5 48.7-133.3 49.1-57.1 134.3-57.1zm1.7 27q-21.4 0-36.9 14.9-15.2 14.4-20.2 57.9-4.6 43-4.6 120 0 40.7 5.9 76.1 4.6 27.1 19.7 41.2 15.1 14.1 34.4 14.1 18.9 0 31.5-9.5 16.4-13 21.8-36.2 8.4-36.2 8.4-146.3 0-64.8-7.9-88.8-8-24.3-23.6-35.4-10.9-8-28.5-8zm417.3-16.4h160v278.9q0 40.7 8.4 51 8.4 9.9 34 12.6v13.7h-160v-47.6q-28.1 30.5-56.2 44.6-28.2 13.7-63 13.7-33.2 0-59.2-18.3-25.6-18.7-34.4-43.4-8.8-24.8-8.8-86.5v-141.3q0-40.4-8.4-50.3-8-9.9-34.1-13v-14.1h160v243.4q0 38.1 3.8 49.2 4.2 11 12.6 16.7 8.8 5.8 20.1 5.8 15.1 0 27.3-7.3 16.8-9.9 40.3-40v-190.4q0-40.4-8.4-50.3-7.9-9.9-34-13zm-1324.2 437h160v46.9q32.3-32 59.6-44.6 27.7-12.9 60.4-12.9 37.8 0 63.4 16 25.6 16 39.5 48.7 33.6-34.3 64.2-49.5 31.1-15.2 64.7-15.2 40.7 0 64.6 17.1 24.4 16.8 33.6 43 9.7 25.9 9.7 83.1v145.9q0 41.1 8 51 8.4 9.9 34.4 13v13.7h-202.8v-13.7q23.9-1.9 35.3-16.8 7.5-10.3 7.5-47.2v-153.2q0-47.6-4.2-60.5-4.2-13-13.4-19.1-8.8-6.4-21-6.4-18 0-36.5 12.1-18.5 11.9-37.4 35.9v191.2q0 38.5 7.2 48.4 9.6 14.1 36.9 15.6v13.7h-203.2v-13.7q16.4-0.8 25.6-7.3 9.7-6.8 12.6-16 3.4-9.5 3.4-40.7v-153.2q0-48.3-4.2-60.5-4.2-12.2-14.3-19.1-9.7-6.8-21-6.8-16.8 0-30.6 8-19.8 11.8-42 40.4v191.2q0 37.7 7.9 49.9 8.4 11.8 34.5 14.1v13.7h-202.4v-13.7q24.8-2.3 35.3-14.5 7.1-8.4 7.1-49.5v-201.2q0-40.3-8.4-50.2-8-9.9-34-13zm820.1 320v132.6q0 27.4 4.6 37.3 5 9.9 15.1 14.5 10.1 4.5 39.4 4.5v14.1h-223.7v-14.1q26-0.7 38.6-13.3 8.4-8.8 8.4-45.3v-376q0-37.7-9.7-48-9.6-10.7-37.3-12.2v-14.1h164.6v46.9q20.5-27.5 41.9-39.6 30.7-18 66.8-18 43.2 0 78.5 24.8 35.7 24.8 54.2 68.6 18.4 43.4 18.4 93.7 0 54.1-19.3 99-18.9 44.6-55.4 68.2-36.1 23.3-80.6 23.3-32.3 0-60.5-13-21-9.9-44-33.9zm0-228.6v190.1q36.1 46.5 77.2 46.5 22.7 0 37.4-21.7 21.8-32 21.8-121.9 0-92.2-23.9-126.1-16-22.5-42.9-22.5-42.4 0-69.6 55.6zm498.6 212.2q-71.8 57.5-128.9 57.5-33.6 0-55.8-19.8-22.3-20.2-22.3-50.3 0-40.7 38.7-73.1 38.6-32.8 168.3-86.8v-35.9q0-40.3-5-50.6-4.6-10.7-18.1-18.3-13.4-8-30.2-8-27.3 0-44.9 11-11 6.9-11 16 0 8 11.8 19.9 16 16.3 16 31.6 0 18.6-15.6 32-15.1 12.9-39.9 12.9-26.4 0-44.5-14.5-17.6-14.4-17.6-33.9 0-27.4 23.9-52.1 24-25.2 66.8-38.5 42.8-13.4 89-13.4 55.8 0 88.2 21.8 32.7 21.3 42.4 46.4 5.8 16 5.8 73.6v138.2q0 24.4 2.1 30.9 2.1 6.1 6.3 9.1 4.2 3.1 9.7 3.1 10.9 0 22.2-14.1l12.6 9.1q-21 28.2-43.6 41.2-22.3 12.5-50.8 12.5-33.6 0-52.5-14.1-18.9-14.4-23.1-43.4zm0-27.8v-119.2q-50.8 27-75.6 57.9-16.3 20.5-16.3 41.5 0 17.5 13.8 30.9 10.5 10.2 29.4 10.2 21 0 48.7-21.3zm-894.2 150.5q48.7 0 90.6 24 41.8 24 63.4 68.2 21.9 44.2 21.9 96.8 0 75.8-40.3 126.8-48.6 61.8-134.4 61.8-84.1 0-129.6-56.4-45.5-56.4-45.5-130.7 0-76.6 46.3-133.3 46.6-57.2 127.6-57.2zm1.6 27.1q-20.3 0-35.1 14.8-14.3 14.5-19.1 58-4.4 43-4.4 119.9 0 40.8 5.6 76.2 4.3 27.1 18.7 41.2 14.4 14.1 32.7 14.1 18 0 29.9-9.6 15.6-12.9 20.8-36.1 7.9-36.2 7.9-146.3 0-64.8-7.5-88.8-7.6-24.4-22.4-35.4-10.3-8-27.1-8zm289.9-16.4h152.4v80.8q37.1-55.3 65-73.2 27.9-18.3 53.8-18.3 22.4 0 35.5 13.4 13.6 12.9 13.6 36.9 0 25.6-13.2 39.6-12.7 14.1-31.1 14.1-21.1 0-36.7-12.9-15.5-13-18.3-14.5-4-2.3-9.2-2.3-11.6 0-21.9 8.4-16.4 13-24.8 37-12.7 36.9-12.7 81.5v81.9l0.4 21.3q0 21.7 2.8 27.8 4.8 10.3 13.9 15.3 9.6 4.5 31.9 5.7v13.7h-201.4v-13.7q24.3-1.9 32.7-12.6 8.8-11 8.8-57.5v-197q0-30.4-3.2-38.8-4-10.7-11.6-15.6-7.5-5-26.7-6.9zm654.9 4.2h125.7v41.9h-71.4q19.5 18.7 27.1 33.9 9.6 20.6 9.6 43 0 38.1-22.4 66.3-21.9 27.8-60.2 43.8-37.9 15.7-67.4 15.7-2.4 0-47.9-1.9-17.9 0-30.3 11.4-11.9 11-11.9 26.6 0 13.8 10.7 22.5 11.2 8.8 35.9 8.8l69-0.8q83.8 0 115.3 17.5 45.1 24.4 45.1 75.1 0 32.4-20.8 59-20.7 26.3-54.6 38.9-51.5 18.7-118.5 18.7-50.2 0-91.7-9.2-41.5-9.5-59.4-25.9-18-16.8-18-35 0-17.6 13.6-31.3 13.9-14.1 51.4-23.6-51.8-24.4-51.8-67.8 0-26.3 21.1-51 21.2-24.8 67-43.1-53.4-18.7-77.4-49.1-23.9-30.5-23.9-70.5 0-52.2 44.7-90.3 44.7-38.5 114.9-38.5 37 0 76.5 14.9zm-69 8.8q-23.1 0-39.1 22.4-15.9 22.1-15.9 92.2 0 56.8 15.5 78.1 16 21 37.5 21 24 0 39.9-21 16-20.9 16-81.5 0-68.2-18-93-12.7-18.2-35.9-18.2zm-23.5 395.8q-40.7 0-53.8 6.4-22.8 11.8-22.8 32 0 19.5 23.6 35.5 23.5 15.6 88.5 15.6 55.4 0 86.9-14.1 32-14.1 32-39.6 0-9.6-6-16-10.8-11.5-32.7-15.7-21.6-4.1-115.7-4.1z"/>
	<path id="Τiou mpa .org" class="s1" aria-label="Τiou
mpa
.org"  d="m115.9 1290.7q27 0 45.6 18.6 18.9 18.7 18.9 45 0 26.3-18.9 44.9-19 18.3-45.6 18.3-26.7 0-45.6-18.3-18.5-18.6-18.5-44.9 0-26.3 18.5-45 18.9-18.6 45.6-18.6z"/>
	<path id="/dictionary/" class="s2" aria-label="/dictionary/"  d="m115.6 1634.8l-68.2 190.9q-2.6 7.1-4.6 9.3-2.7 2.8-6.6 2.8-4.3 0-7.5-4-3.2-4.1-3.2-9.2 0-3.6 2.5-10.6l68.4-190.8q2.6-7.1 4.6-9.3 2.8-2.8 6.5-2.8 4.4 0 7.5 4 3.1 3.9 3.1 9.1 0 3.6-2.5 10.6zm107.1-3.6h24.9v147.2h3.7q7.5 0 10.8 3.9 3.4 3.7 3.4 10 0 6-3.4 9.9-3.2 3.8-10.8 3.8h-25v-6.7q-7.2 5.5-15.2 8.3-7.9 2.8-16.4 2.8-24 0-38.6-17.9-14.7-18-14.7-44.9 0-28 15.4-47.8 15.4-19.8 37.5-19.8 8.3 0 16.3 3.3 8 3.3 15.7 9.9v-34.4h-3.6q-7.7 0-11-3.8-3.2-3.9-3.2-10 0-6.2 3.2-9.9 3.3-3.9 11-3.9zm3.6 117.2q0-17.1-9.2-28.9-9.2-11.9-22.6-11.9-13.3 0-22.5 11.9-9.3 11.8-9.3 28.5 0 15.3 8.3 25.1 8.3 9.7 23.5 9.7 15 0 23.4-9.7 8.4-9.8 8.4-24.7zm82.8-117.2h25.3v29.2h-25.3zm-10.2 52.5h38.4v94.7h25.6q7.6 0 10.9 3.9 3.3 3.8 3.3 10 0 6.1-3.3 10-3.3 3.8-10.9 3.8h-72.4q-7.7 0-11-3.8-3.2-3.9-3.2-10.1 0-6.1 3.2-9.9 3.3-3.9 11-3.9h25.5v-67.1h-17.1q-7.6 0-10.9-3.8-3.3-3.9-3.3-10.1 0-6.1 3.2-9.8 3.3-3.9 11-3.9zm189 4.9q3.9-4.7 7.9-4.7 4.6 0 7.5 4.3 3 4.2 3 14.1v17.7q0 10-3 14.2-2.9 4.2-7.7 4.2-4.3 0-7.3-3.3-2.2-2.4-3.5-9.8-1.2-7.5-6-11.2-8.4-6.5-21.5-6.5-15 0-24.2 11.5-9 11.5-9 29 0 16.2 8.7 25.6 8.7 9.3 29 9.3 13.3 0 21.7-3.5 5-2.2 9.4-7.3 4.5-5.2 8.1-5.2 4.4 0 7.5 4.1 3.2 4.2 3.2 9.9 0 9.1-9.6 17.4-14.4 12.2-42 12.2-24.8 0-38.6-13.3-18.7-17.9-18.7-49.1 0-29.5 15.2-48.8 15.1-19.4 39.5-19.4 8.9 0 16.4 2.2 7.6 2.1 14 6.4zm128 22.7h-39.4v55.4q0 8.9 2.8 11.7 4.4 4.5 15.6 4.5 16.3 0 30.1-9.1 5.3-3.5 8.3-3.5 4.2 0 7.2 4.1 3.1 4 3.1 9.8 0 5.4-3.3 9.3-5.1 6.4-20.2 11.7-14.9 5.3-25.2 5.3-19.8 0-29.8-11.1-9.8-11.1-9.8-27.3v-60.8h-7.7q-7.7 0-11-3.8-3.2-3.9-3.2-10.1 0-6.1 3.2-9.8 3.3-3.9 11-3.9h7.7v-25q0-10 2.9-14.1 3-4.4 7.8-4.4 4.6 0 7.5 4.4 3 4.1 3 14.1v25h39.4q7.7 0 10.9 3.9 3.3 3.7 3.3 9.9 0 6.1-3.3 10-3.2 3.8-10.9 3.8zm76.2-80.1h25.3v29.3h-25.3zm-10.2 52.4h38.4v94.8h25.6q7.6 0 10.9 3.9 3.3 3.8 3.3 10 0 6-3.3 9.9-3.3 3.8-10.9 3.8h-72.4q-7.7 0-11-3.8-3.2-3.9-3.2-10.1 0-6 3.2-9.8 3.3-3.9 11-3.9h25.5v-67.2h-17.1q-7.6 0-10.9-3.7-3.3-3.9-3.3-10.1 0-6.1 3.2-9.9 3.3-3.9 11-3.9zm210.2 63.5q0 15.9-6.9 30.9-6.7 14.8-20.2 23.7-13.4 8.8-28.1 8.8-14.5 0-27.8-8.7-13.3-8.7-20.2-23.7-7-15-7-31.3 0-16.6 7.1-32.5 7-16 20.2-25.2 13.3-9.1 27.7-9.1 14.6 0 28 9.4 13.5 9.3 20.3 25.2 6.9 15.8 6.9 32.5zm-21.3 0.1q0-13.3-7.4-24.5-10.1-15.1-26.5-15.1-14.4 0-24 12-9.7 12-9.7 27.8 0 12.9 9.8 24.2 9.7 11.2 23.9 11.2 14.4 0 24.1-11.2 9.8-11.3 9.8-24.4zm52.2-63.6h20.2v9.3q5.9-6.5 12.8-9.7 7.1-3.2 15.3-3.2 18.9 0 29.9 15.2 8.7 12.1 8.7 31.8v51.4q6.7 0 9.9 3.9 3.3 3.8 3.3 10 0 6-3.4 9.9-3.2 3.8-10.9 3.8h-19.2q-7.6 0-11-3.8-3.2-3.9-3.2-10.1 0-6 3.2-9.8 3.3-3.9 10-3.9v-52.2q0-9-3.7-13.2-4.9-5.4-14.7-5.4-7.3 0-12.9 3.8-5.5 3.6-14.1 15.6v51.4q8.2 0 10.6 2 5.1 4 5.1 11.9 0 6-3.3 9.9-3.2 3.8-10.9 3.8h-24.2q-7.7 0-11-3.8-3.2-3.9-3.2-10.1 0-7.5 5-11.7 2.5-2 10.7-2v-67.2q-6.8 0-10-3.9-3.2-3.9-3.2-9.9 0-6.1 3.2-9.9 3.3-3.9 11-3.9zm212.8 122.4h-24.9v-6.5q-8 5.6-17.6 8.4-9.7 2.7-17.6 2.7-17.1 0-27.8-11.7-10.7-11.9-10.7-26.2 0-17.4 13.6-32.2 13.7-15 37.8-15 9.7 0 22.3 2.7v-6.6q0-6.2-4.1-10.1-4.1-3.9-15.6-3.9-9.4 0-24.5 4.9-5.6 1.7-8.7 1.7-4.3 0-7.3-3.9-2.9-4-2.9-10.2 0-3.6 1.1-6.1 1-2.6 2.9-4.1 1.8-1.6 7.8-3.7 7.8-2.9 16-4.5 8.2-1.7 14.9-1.7 19.8 0 30.7 11.2 11 11 11 30.3v56.9h3.6q7.7 0 10.9 3.9 3.4 3.8 3.4 10 0 6-3.4 9.9-3.2 3.8-10.9 3.8zm-24.9-37.6v-11.9q-12.7-3.2-23.5-3.2-13 0-22.3 8.2-5.9 5.3-5.9 10.7 0 3.9 2.8 6.3 5.2 4.5 14.3 4.5 7.6 0 17.3-4 9.8-3.9 17.3-10.6zm75.5-84.8h29v17.3q13.4-12.6 21-16.8 7.8-4.1 14.6-4.1 10.4 0 20.1 9.9 6.7 6.8 6.7 13.8 0 5.9-3.3 10.1-3.1 4-7.5 4-4 0-8.3-5.1-4.4-5.1-7.8-5.1-4.5 0-13.4 7.3-8.8 7.3-22.1 21.8v41.7h30.3q7.7 0 10.9 3.9 3.3 3.8 3.3 10 0 6-3.3 9.9-3.2 3.8-10.9 3.8h-64.3q-7.7 0-11-3.8-3.2-3.9-3.2-10.1 0-6 3.2-9.8 3.3-3.9 11-3.9h12.7v-67.2h-7.7q-7.7 0-11-3.7-3.2-3.9-3.2-10.1 0-6.1 3.2-9.9 3.3-3.9 11-3.9zm137.5 152.5l12-31-36.8-93.9q-5.2-0.8-7.9-4.5-2.7-3.8-2.7-9.2 0-6.2 3.2-10 3.3-3.9 11-3.9h19.4q7.7 0 10.9 3.9 3.3 3.8 3.3 10 0 6.1-3.3 10-3.2 3.7-10.3 3.7l25.1 63.5 24.9-63.5q-6.8 0-10.1-3.7-3.2-3.9-3.2-10.1 0-6.1 3.2-9.9 3.3-3.9 11-3.9h20q7.6 0 10.8 3.9 3.3 3.8 3.3 10 0 5.5-2.8 9.4-2.8 3.8-8.3 4.3l-48.8 124.9q8 0 10.5 2 5 4.2 5 11.8 0 6.1-3.3 10-3.2 3.8-10.9 3.8h-46.4q-7.7 0-11-3.8-3.2-3.9-3.2-10 0-6.2 3.2-9.9 3.3-3.9 11-3.9zm194.8-201.3l-68.2 190.9q-2.6 7.1-4.7 9.3-2.7 2.8-6.5 2.8-4.4 0-7.6-4-3.1-4.1-3.1-9.2 0-3.6 2.5-10.6l68.4-190.8q2.6-7.1 4.5-9.3 2.8-2.8 6.6-2.8 4.3 0 7.4 4 3.2 3.9 3.2 9.1 0 3.6-2.5 10.6z"/>
</svg>