<svg version="1.2" xmlns="http://www.w3.org/2000/svg" viewBox="0 0 1549 1864" width="300" height="361">
	<style>
		.s0 { fill: #0083c5 } 
		.s1 { fill: #bc0007 } 
		.s2 { fill: #428d4a } 
	</style>
	<path id="Τιού μπα .org" class="s0" aria-label="Τιού
μπα
.org"  d="m48.1 17.5h511.3v139.8h-15.1q-13.4-48.4-29.8-69.4-16.4-21.3-44.9-33.9-16-6.8-55.9-6.8h-42.4v398.4q0 39.6 4.7 49.5 5 9.9 18.9 17.6 14.2 7.2 38.6 7.2h18.9v14.1h-298.1v-14.1h18.9q24.8 0 39.9-8 10.9-5.3 17.2-18.3 4.6-9.1 4.6-48v-398.4h-41.1q-57.6 0-83.6 22.1-36.5 30.8-46.2 88h-15.9zm500.4 174.4v-14.1h167.1v237.4q0 41.5 5.8 56.3 6.3 14.5 22.7 14.5 28.6 0 34.4-56.8h15.6q0 48.4-26.5 81.9-26 33.6-76.4 33.6-31.5 0-53.3-12.6-21.8-12.6-29.8-33.1-8-21-8-67.8v-177.6q0-36.5-10.5-48.3-10.5-12.2-41.1-13.4zm417.6-24.7q51.2 0 95.3 24 44.1 24 66.8 68.1 23.1 44.2 23.1 96.8 0 75.8-42.4 126.9-51.3 61.7-141.5 61.7-88.6 0-136.5-56.4-47.8-56.4-47.8-130.7 0-76.5 48.7-133.3 49.1-57.1 134.3-57.1zm1.7 27q-21.4 0-36.9 14.9-15.2 14.4-20.2 57.9-4.6 43-4.6 120 0 40.7 5.9 76.1 4.6 27.1 19.7 41.2 15.1 14.1 34.4 14.1 18.9 0 31.5-9.5 16.4-13 21.8-36.2 8.4-36.2 8.4-146.3 0-64.8-7.9-88.8-8-24.3-23.6-35.4-10.9-8-28.5-8zm428.2-12.6v-14.4q55.5 0 104.2 45.3 48.7 45.3 48.7 133.7 0 85.3-47.5 142.1-47 56.4-126.8 56.4-49.9 0-85.6-19.8-35.7-20.2-50-45.8-13.8-25.5-13.8-68.9v-95.6q0-58.3-5.9-72.4-5.9-14.5-23.1-14.5-34.8 0-39.5 59.5h-15.5q2.9-57.9 31.1-88.8 28.5-31.2 75.1-31.2 35.7 0 65.5 22.4 29.8 22.5 29.8 83.5v143.2q0 57.1 12.2 78.8 12.2 21.4 41.6 21.4 37.7 0 59.6-46.5 21.8-46.5 21.8-124.2 0-80.7-21-113.5-21-33.1-60.9-50.7zm-36.5-181.7h126.4l-139 132.2h-36.1zm-883.6 871.3h15.5q-0.4 57.1-28.5 83.8-28.2 26.7-68.9 26.7-66.7 0-89.4-58.3-51.2 58.3-118 58.3-26 0-45.7-14.9 5.4 30.9 18.4 70.5 10.5 32.4 10.5 46.1 0 24-13.8 40-13.9 16-40.3 16-53.8 0-53.8-48.8 0-15.2 8.8-51 12.6-52.2 12.6-119.7v-305.1h117.6v243.4q0 43.1 7.5 57.6 8 14 29.4 14 32.8 0 66.8-47.2v-267.8h117.5v265.9q0 42.7 24.8 42.7 27.3 0 29-52.2zm344.8-166.5h-84q-21 181.7-39 229.3-17.7 47.7-63.9 47.7-22.6 0-40.7-12.6-18-12.6-18-35.4 0-17.9 17.6-37.4 28.1-30.8 39-47.2 11.4-16.8 28.2-56.4 16.8-40 29.8-88h-34.4q-37.4 0-57.6 8.4-19.7 8-33.1 30.9l-14.3-5.8q16.8-51.4 40.3-80.7 23.9-29.7 44.9-36.2 21-6.5 78.5-6.5h280.1v89.9h-94.1l-7.1 111.6q-0.4 6.5-0.4 17.9 0 51.1 7.1 70.5 7.6 19.1 26 19.1 30.7 0 35.7-57.6h15.6q0 48-26.5 81.9-26 33.6-75.1 33.6-40.4 0-59.2-21.8-18.5-21.7-18.5-70.1 0-35.4 7.5-84.1zm537.3-13.8l18.1-76.1h115l-39.9 168.3q-14.2 61-27.7 93.4 3.8 20.2 15.6 33.5 12.1 13.3 24.7 13.3 34 0 36.1-56.4h15.6q-0.9 67.5-16.4 91.1-15.1 23.6-37.4 23.6-38.6 0-54.6-76.6-46.6 76.6-143.5 76.6-77.7 0-125.6-49.1-47.4-49.2-47.4-127.3 0-81.5 47-141.3 47.5-59.8 114.6-59.8 34.5 0 58.4 20.2 23.9 19.8 47.4 66.6zm-34.8 148.2l23.5-100.9q-23.9-62.9-42-83.1-17.6-20.5-41.6-20.5-22.2 0-35.6 26.6-13.5 26.3-13.5 154.3 0 73.5 8.4 106.7 8.8 32.7 33.6 32.7 16.8 0 32.3-17.5 16-17.5 34.9-98.3zm-849.7 202q48.6 0 90.5 24 41.9 24 63.4 68.2 22 44.2 22 96.7 0 75.8-40.3 126.9-48.7 61.7-134.4 61.7-84.2 0-129.7-56.4-45.4-56.4-45.4-130.6 0-76.6 46.2-133.4 46.7-57.1 127.7-57.1zm1.6 27q-20.4 0-35.1 14.9-14.4 14.5-19.2 57.9-4.4 43-4.4 120 0 40.8 5.6 76.2 4.4 27 18.8 41.1 14.3 14.1 32.7 14.1 17.9 0 29.9-9.5 15.5-13 20.7-36.2 8-36.2 8-146.3 0-64.7-7.6-88.7-7.5-24.4-22.3-35.5-10.4-8-27.1-8zm289.9-16.3h152.3v80.7q37.1-55.2 65.1-73.1 27.9-18.3 53.8-18.3 22.3 0 35.5 13.3 13.6 13 13.6 37 0 25.5-13.2 39.6-12.8 14.1-31.1 14.1-21.2 0-36.7-13-15.6-12.9-18.4-14.4-3.9-2.3-9.1-2.3-11.6 0-22 8.4-16.3 12.9-24.7 36.9-12.8 37-12.8 81.5v81.9l0.4 21.4q0 21.7 2.8 27.8 4.8 10.3 14 15.2 9.6 4.6 31.9 5.7v13.7h-201.4v-13.7q24.3-1.9 32.7-12.5 8.8-11.1 8.8-57.6v-196.9q0-30.5-3.2-38.9-4-10.6-11.6-15.6-7.6-4.9-26.7-6.8zm654.9 4.1h125.6v41.9h-71.4q19.6 18.7 27.2 34 9.5 20.5 9.5 43 0 38.1-22.3 66.3-21.9 27.8-60.2 43.8-37.9 15.6-67.4 15.6-2.4 0-47.9-1.9-17.9 0-30.3 11.4-12 11.1-12 26.7 0 13.7 10.8 22.5 11.2 8.7 35.9 8.7l69-0.7q83.8 0 115.3 17.5 45 24.4 45 75 0 32.4-20.7 59.1-20.8 26.3-54.7 38.8-51.4 18.7-118.4 18.7-50.3 0-91.7-9.1-41.5-9.6-59.5-25.9-17.9-16.8-17.9-35.1 0-17.5 13.5-31.2 14-14.1 51.5-23.6-51.9-24.4-51.9-67.8 0-26.3 21.2-51.1 21.1-24.8 67-43-53.5-18.7-77.4-49.2-23.9-30.5-23.9-70.5 0-52.1 44.6-90.2 44.7-38.5 114.9-38.5 37.1 0 76.6 14.8zm-69 8.8q-23.1 0-39.1 22.5-15.9 22.1-15.9 92.2 0 56.7 15.5 78.1 16 20.9 37.5 20.9 23.9 0 39.9-20.9 15.9-21 15.9-81.6 0-68.1-17.9-92.9-12.8-18.3-35.9-18.3zm-23.5 395.8q-40.7 0-53.9 6.5-22.7 11.8-22.7 32 0 19.4 23.5 35.4 23.5 15.6 88.6 15.6 55.4 0 86.9-14.1 31.9-14.1 31.9-39.6 0-9.5-6-16-10.7-11.4-32.7-15.6-21.5-4.2-115.6-4.2z"/>
	<path id="Τιού μπα .org" class="s1" aria-label="Τιού
μπα
.org"  d="m115.9 1290.7q27 0 45.6 18.6 18.9 18.7 18.9 45 0 26.3-18.9 44.9-19 18.3-45.6 18.3-26.7 0-45.6-18.3-18.5-18.6-18.5-44.9 0-26.3 18.5-45 18.9-18.6 45.6-18.6z"/>
	<path id="/λεξικό/" class="s2" aria-label="/λεξικό/"  d="m117.8 1630.8l-88.6 190.9q-3.3 7.1-6 9.3-3.5 2.8-8.5 2.8-5.7 0-9.9-4-4-4.1-4-9.2 0-3.6 3.2-10.6l88.8-190.8q3.4-7.1 6-9.3 3.6-2.8 8.5-2.8 5.6 0 9.7 4 4 3.9 4 9.1 0 3.6-3.2 10.6zm81 143.6l41.5-83.9-19.1-35.7h-12.3q-18.5 0-18.5-13.8 0-13.8 18.5-13.8h28.6l79.8 147.2q18.5 0 18.5 13.7 0 13.9-18.5 13.9h-27.4q-18.4 0-18.4-13.9 0-12.4 14.2-13.7l-29.5-54.5-26.8 54.5q14.7 1 14.7 13.7 0 13.9-18.5 13.9h-26.7q-18.4 0-18.4-13.9 0-13.7 18.3-13.7zm262-48.7h13.2v27.1h-13.1q-17.2 0-26.7 3.9-9.4 3.9-9.4 9.7 0 4.3 7.2 8.4 7.1 4 21 4 12.8 0 29.2-5.4 7-2.3 10.7-2.3 7 0 11.3 4.3 4.3 4.2 4.3 9.5 0 9.4-16.7 15.5-16.6 6-39.4 6-26 0-40.7-11.8-14.5-11.9-14.5-28.1 0-18 16.7-29.9-14.2-10.2-14.2-24.1 0-14.4 13.4-25.5 13.3-11 37-11 17.2 0 31.7 8.2 4.6-8.2 12.7-8.2 13.7 0 13.7 16.3l-0.2 7.1 0.5 13.1q0 7.9-4.4 11.7-4.5 3.7-9.6 3.7-6.1 0-11.9-7.3-13.6-17-34.3-17-10 0-15.5 3-5.4 2.9-5.4 6.8 0 12.3 33.4 12.3zm222.7-19.1v27.7q-23.9 0-38 7.4-14 7.3-14 20.4 0 9.3 4.8 14.4 4.9 5.1 24 9.1 14.8 3.1 23.3 7.2 8.7 4.2 14 12.7 5.4 8.5 5.4 20 0 17.1-11.6 27.5-11.6 10.3-31.1 10.3-17.7 0-17.7-13.4 0-13.4 18.5-14.3 14.3-0.7 14.3-9.9 0-5.4-3.4-7.5-3.3-2.2-15.7-5.1-19.2-4.5-29-9.2-9.7-4.9-16.6-15.4-6.9-10.6-6.9-25.5 0-31 27.4-44.2-17.3-14.1-17.3-37.6 0-16.3 10.3-26.4-16.9-0.3-16.9-13.8 0-13.8 18.5-13.8h49.7q18.5 0 18.5 13.8 0 7.1-4.7 10.4-4.6 3.3-15.7 4.2-10.5 0.8-16.5 3-6 2.1-10.8 8.6-4.7 6.5-4.7 14.2 0 24.6 41.9 25.2zm139 61.3v-69.8q0-18.5 13.9-18.5 13.7 0 13.7 18.5v72.9q0 7.8 5.5 7.8 1.6 0 4.1-0.7 4.7-1.4 7-1.4 5.5 0 9.6 4.1 4 4.1 4 9.7 0 7.3-6.3 11.6-6.2 4.3-17.6 4.3-13.3 0-23.7-8.7-10.2-8.8-10.2-29.8zm199.3-60.7v22.5l25.4-22.5v-27.6h40.8q18.5 0 18.5 13.9 0 13.7-17.7 13.7l-33.4 29.7q16.6 10.9 32.6 37.5h6.2q18.4 0 18.4 13.7 0 13.9-18.4 13.9h-22.2q-15.4-27.5-26.8-38-11.4-10.7-23.4-11.2v21.6q10.8 0 15.5 3.2 4.9 3.1 4.9 10.5 0 13.9-18.5 13.9h-31.4q-18.5 0-18.5-13.9 0-7.3 4.8-10.5 4.7-3.2 15.6-3.2v-67.2q-10.8 0-15.6-3.1-4.8-3.2-4.8-10.6 0-13.9 18.5-13.9h26.4q18.4 0 18.4 13.9 0 12.9-15.3 13.7zm284.8 35.9q0 15.9-8.9 30.9-8.7 14.8-26.3 23.7-17.4 8.7-36.4 8.7-18.8 0-36.1-8.6-17.2-8.7-26.3-23.7-9-15-9-31.3 0-16.6 9.2-32.5 9.1-16 26.2-25.2 17.3-9.1 36-9.1 18.9 0 36.3 9.4 17.5 9.3 26.4 25.2 8.9 15.8 8.9 32.5zm-27.6 0.1q0-13.3-9.6-24.5-13.1-15.1-34.4-15.1-18.7 0-31.2 12-12.6 12-12.6 27.8 0 12.9 12.7 24.2 12.7 11.2 31.1 11.2 18.6 0 31.3-11.2 12.7-11.3 12.7-24.4zm-15.3-107.7l-30.3 24.7q-4.6 3.6-7.7 3.6-3.7 0-6.4-2.5-2.6-2.6-2.6-6.4 0-4.3 5.4-8.6l30.5-24.7q4.5-3.6 7.6-3.6 3.8 0 6.4 2.6 2.7 2.5 2.7 6.2 0 4.4-5.6 8.7zm224.1-4.7l-88.6 190.9q-3.3 7.1-6 9.3-3.5 2.8-8.5 2.8-5.7 0-9.9-4-4-4.1-4-9.2 0-3.6 3.2-10.6l88.8-190.8q3.4-7.1 6-9.3 3.6-2.8 8.5-2.8 5.6 0 9.7 4 4 3.9 4 9.1 0 3.6-3.2 10.6z"/>
</svg>